<svg viewBox="0 0 4 16" xmlns="http://www.w3.org/2000/svg">
	<path d="M3.928 0.709999V6.65L3.598 11.182H1.046L0.694 6.65V0.709999H3.928ZM2.696 12.656C3.12133 12.656 3.41467 12.744 3.576 12.92C3.752 13.0813 3.84 13.3747 3.84 13.8V14.856C3.84 15.296 3.752 15.5967 3.576 15.758C3.41467 15.9193 3.12133 16 2.696 16H1.948C1.508 16 1.20733 15.9193 1.046 15.758C0.884667 15.5967 0.804 15.296 0.804 14.856V13.8C0.804 13.3747 0.884667 13.0813 1.046 12.92C1.20733 12.744 1.508 12.656 1.948 12.656H2.696Z" />
</svg>
