<svg viewBox="0 0 12 12" xmlns="http://www.w3.org/2000/svg">
	<path d="M11.0114 9.21269L7.72127 5.92725L11.0114 2.64181C11.4646 2.18858 11.4646 1.45293 11.0126 0.998472C10.5582 0.542902 9.82252 0.544073 9.36812 0.9973L6.07571 4.28508L2.7833 0.9973C2.3289 0.544073 1.59325 0.542902 1.13885 0.998472C0.68562 1.45287 0.685619 2.18852 1.14002 2.64181L4.43015 5.92725L1.14002 9.21269C0.685619 9.66591 0.68562 10.4016 1.13885 10.856C1.36549 11.0838 1.66414 11.1965 1.96169 11.1965C2.25923 11.1965 2.55671 11.0826 2.78335 10.8571L6.07577 7.56935L9.36818 10.8571C9.59482 11.0838 9.89231 11.1965 10.1898 11.1965C10.4874 11.1965 10.786 11.0826 11.0127 10.856C11.4658 10.4016 11.4658 9.66591 11.0114 9.21269Z" />
</svg>
