<svg viewBox="0 0 14 14" xmlns="http://www.w3.org/2000/svg">
	<path d="M6.54984 11.268C6.56473 11.2828 6.58034 11.2969 6.59663 11.3103C6.6038 11.3161 6.61135 11.3212 6.61869 11.3267C6.62794 11.3337 6.63702 11.3408 6.64665 11.3473C6.65565 11.3533 6.66498 11.3585 6.67419 11.364C6.68275 11.3691 6.69115 11.3745 6.69998 11.3792C6.70948 11.3843 6.7192 11.3886 6.72887 11.3932C6.73799 11.3975 6.74698 11.4021 6.75636 11.4059C6.76582 11.4098 6.77545 11.413 6.78504 11.4164C6.79501 11.42 6.80489 11.4238 6.81512 11.4269C6.82471 11.4298 6.83446 11.432 6.84418 11.4344C6.85461 11.437 6.86492 11.4399 6.87553 11.4421C6.88669 11.4443 6.89793 11.4456 6.90921 11.4472C6.91851 11.4485 6.92767 11.4503 6.93713 11.4512C6.958 11.4533 6.97896 11.4544 6.99992 11.4544C7.02088 11.4544 7.04183 11.4533 7.06271 11.4512C7.07225 11.4503 7.08154 11.4485 7.091 11.4472C7.10212 11.4456 7.11323 11.4443 7.12426 11.4421C7.13508 11.4399 7.1456 11.4369 7.15625 11.4343C7.16571 11.4318 7.17526 11.4298 7.18463 11.427C7.19507 11.4238 7.20512 11.4199 7.21535 11.4162C7.22472 11.4128 7.23418 11.4098 7.24343 11.406C7.25298 11.402 7.2621 11.3974 7.27139 11.393C7.28094 11.3885 7.29057 11.3842 7.2999 11.3792C7.30881 11.3745 7.31721 11.3691 7.32582 11.3639C7.33503 11.3584 7.34436 11.3532 7.35331 11.3472C7.36273 11.3409 7.3716 11.3339 7.38059 11.3271C7.38818 11.3215 7.39595 11.3162 7.40333 11.3102C7.41882 11.2974 7.43362 11.284 7.44783 11.2699C7.44851 11.2692 7.44923 11.2687 7.44991 11.268L10.4197 8.29844C10.6682 8.04991 10.6682 7.64701 10.4197 7.39849C10.1712 7.14997 9.76827 7.15001 9.51975 7.39845L7.63628 9.28179V0.636364C7.63628 0.284921 7.35136 0 6.99992 0C6.64848 0 6.36355 0.284921 6.36355 0.636364V9.28179L4.48026 7.39853C4.23174 7.15001 3.82879 7.15001 3.58031 7.39853C3.33179 7.64705 3.33179 8.04996 3.58031 8.29848L6.54984 11.268Z" />
	<path d="M13.3636 12.7273H0.636364C0.284921 12.7273 0 13.0122 0 13.3636C0 13.7151 0.284921 14 0.636364 14H13.3636C13.7151 14 14 13.7151 14 13.3636C14 13.0122 13.7151 12.7273 13.3636 12.7273Z" />
</svg>
