<svg viewBox="0 0 20 20" xmlns="http://www.w3.org/2000/svg">
	<path d="M17.857 0H8.57124C7.38777 0 6.42839 0.959388 6.42839 2.14286V6.42857C6.42839 6.82307 6.74818 7.14287 7.14269 7.14287C7.53719 7.14287 7.85698 6.82307 7.85698 6.42857V2.14286C7.85698 1.74835 8.17678 1.42856 8.57128 1.42856H17.857C18.2515 1.42856 18.5713 1.74835 18.5713 2.14286V17.8571C18.5713 18.2516 18.2515 18.5714 17.857 18.5714H8.57124C8.17674 18.5714 7.85694 18.2516 7.85694 17.8571V13.5714C7.85694 13.1769 7.53715 12.8571 7.14264 12.8571C6.74814 12.8571 6.42834 13.1769 6.42834 13.5714V17.8571C6.42834 19.0406 7.38773 20 8.5712 20H17.8569C19.0404 20 19.9998 19.0406 19.9998 17.8571V2.14286C19.9998 0.959388 19.0404 0 17.857 0Z" />
	<path d="M14.2853 9.28573H2.43816L4.79032 6.93357C5.06437 6.64981 5.0565 6.19763 4.77274 5.92358C4.49592 5.65627 4.0571 5.65627 3.78033 5.92358L0.208874 9.49499C0.142538 9.56137 0.0900965 9.64026 0.0546055 9.72715C-0.0176322 9.90189 -0.0176322 10.0981 0.0546055 10.2729C0.090264 10.36 0.142956 10.4392 0.209586 10.5057L3.781 14.0771C4.05505 14.3609 4.50723 14.3688 4.79099 14.0947C5.07475 13.8207 5.08262 13.3685 4.80856 13.0847C4.80283 13.0788 4.79697 13.0729 4.79099 13.0672L2.43816 10.7143H14.2853C14.6798 10.7143 14.9996 10.3945 14.9996 9.99999C14.9996 9.60549 14.6798 9.28573 14.2853 9.28573Z" />
</svg>
